<?xml version="1.0" encoding="iso-8859-1"?>
<!-- Generator: Adobe Illustrator 16.0.0, SVG Export Plug-In . SVG Version: 6.00 Build 0)  -->
<!DOCTYPE svg PUBLIC "-//W3C//DTD SVG 1.1//EN" "http://www.w3.org/Graphics/SVG/1.1/DTD/svg11.dtd">
<svg version="1.1" id="Capa_1" xmlns="http://www.w3.org/2000/svg" xmlns:xlink="http://www.w3.org/1999/xlink" x="0px" y="0px"
	 width="254.954px" height="254.955px" viewBox="0 0 254.954 254.955" style="enable-background:new 0 0 254.954 254.955;"
	 xml:space="preserve">
<g>
	<g>
		<g>
			<g>
				<path style="fill:#030303;" d="M34.977,65.666c-18.006,0-32.65-14.649-32.65-32.664c0-18.006,14.644-32.655,32.65-32.655
					c18.009,0,32.659,14.649,32.659,32.655C67.636,51.01,52.986,65.666,34.977,65.666z M34.977,12.056
					c-11.547,0-20.939,9.392-20.939,20.945c0,11.55,9.392,20.954,20.939,20.954c11.55,0,20.948-9.397,20.948-20.954
					C55.925,21.454,46.527,12.056,34.977,12.056z"/>
			</g>
		</g>
		<g>
			<g>
				<path style="fill:#030303;" d="M128.661,65.323c-18.006,0-32.65-14.655-32.65-32.667C96.011,14.649,110.655,0,128.661,0
					c18.009,0,32.658,14.649,32.658,32.656C161.319,50.667,146.67,65.323,128.661,65.323z M128.661,11.71
					c-11.548,0-20.939,9.392-20.939,20.945c0,11.559,9.392,20.956,20.939,20.956s20.948-9.397,20.948-20.956
					C149.609,21.102,140.209,11.71,128.661,11.71z"/>
			</g>
		</g>
		<g>
			<g>
				<path style="fill:#030303;" d="M220.77,65.323c-18.006,0-32.655-14.655-32.655-32.667C188.114,14.649,202.764,0,220.77,0
					s32.661,14.649,32.661,32.656C253.431,50.667,238.775,65.323,220.77,65.323z M220.77,11.71
					c-11.556,0-20.945,9.392-20.945,20.945c0,11.559,9.39,20.956,20.945,20.956c11.551,0,20.951-9.397,20.951-20.956
					C241.721,21.102,232.314,11.71,220.77,11.71z"/>
			</g>
		</g>
		<g>
			<g>
				<path style="fill:#030303;" d="M34.185,159.875c-18.009,0-32.661-14.649-32.661-32.649c0-18.012,14.652-32.665,32.661-32.665
					c8.714,0,16.911,3.402,23.086,9.575c6.179,6.176,9.581,14.375,9.575,23.09C66.847,145.226,52.197,159.875,34.185,159.875z
					 M34.185,106.272c-11.55,0-20.951,9.397-20.951,20.954c0,11.55,9.4,20.939,20.951,20.939c11.553,0,20.951-9.39,20.951-20.939
					c0-5.59-2.178-10.848-6.141-14.804C45.029,108.451,39.771,106.272,34.185,106.272z"/>
			</g>
		</g>
		<g>
			<g>
				<path style="fill:#030303;" d="M127.869,159.539c-18.009,0-32.661-14.655-32.661-32.668c0-18.002,14.652-32.655,32.661-32.655
					c18.012,0,32.661,14.644,32.661,32.655C160.53,144.883,145.881,159.539,127.869,159.539z M127.869,105.926
					c-11.55,0-20.951,9.395-20.951,20.944c0,11.562,9.4,20.957,20.951,20.957c11.551,0,20.951-9.395,20.951-20.957
					C148.82,115.327,139.42,105.926,127.869,105.926z"/>
			</g>
		</g>
		<g>
			<g>
				<path style="fill:#030303;" d="M220.77,159.539c-18.006,0-32.655-14.655-32.655-32.668c0-18.002,14.649-32.655,32.655-32.655
					s32.661,14.644,32.661,32.655C253.431,144.883,238.775,159.539,220.77,159.539z M220.77,105.926
					c-11.556,0-20.945,9.395-20.945,20.944c0,11.562,9.39,20.957,20.945,20.957c11.551,0,20.951-9.395,20.951-20.957
					C241.721,115.327,232.314,105.926,220.77,105.926z"/>
			</g>
		</g>
		<g>
			<g>
				<path style="fill:#030303;" d="M34.977,254.955c-18.006,0-32.65-14.655-32.65-32.667c0-18.006,14.644-32.655,32.65-32.655
					c18.009,0,32.659,14.649,32.659,32.655C67.636,240.299,52.986,254.955,34.977,254.955z M34.977,201.342
					c-11.547,0-20.939,9.396-20.939,20.945c0,11.556,9.392,20.956,20.939,20.956c11.55,0,20.948-9.4,20.948-20.956
					C55.925,210.738,46.527,201.342,34.977,201.342z"/>
			</g>
		</g>
		<g>
			<g>
				<path style="fill:#030303;" d="M128.661,254.6c-18.006,0-32.65-14.649-32.65-32.661c0-18.006,14.644-32.656,32.65-32.656
					c18.009,0,32.658,14.65,32.658,32.656C161.319,239.951,146.67,254.6,128.661,254.6z M128.661,200.994
					c-11.548,0-20.939,9.395-20.939,20.945s9.392,20.951,20.939,20.951s20.948-9.4,20.948-20.951S140.209,200.994,128.661,200.994z"
					/>
			</g>
		</g>
		<g>
			<g>
				<path style="fill:#030303;" d="M220.77,254.6c-18.006,0-32.655-14.649-32.655-32.661c0-18.006,14.649-32.656,32.655-32.656
					s32.661,14.65,32.661,32.656C253.431,239.951,238.775,254.6,220.77,254.6z M220.77,200.994
					c-11.556,0-20.945,9.395-20.945,20.945s9.39,20.951,20.945,20.951c11.551,0,20.951-9.4,20.951-20.951
					S232.314,200.994,220.77,200.994z"/>
			</g>
		</g>
	</g>
</g>
<g>
</g>
<g>
</g>
<g>
</g>
<g>
</g>
<g>
</g>
<g>
</g>
<g>
</g>
<g>
</g>
<g>
</g>
<g>
</g>
<g>
</g>
<g>
</g>
<g>
</g>
<g>
</g>
<g>
</g>
</svg>
